<svg version="1.1" xmlns="http://www.w3.org/2000/svg" xmlns:xlink="http://www.w3.org/1999/xlink" width="32px" height="32px" viewBox="0,0,256,256"><g fill="#a1a1a1" fill-rule="nonzero" stroke="none" stroke-width="1" stroke-linecap="butt" stroke-linejoin="miter" stroke-miterlimit="10" stroke-dasharray="" stroke-dashoffset="0" font-family="none" font-weight="none" font-size="none" text-anchor="none" style="mix-blend-mode: normal"><g transform=""><g><g><g><g transform="translate(0.001,0.001) scale(8,8)"><path d="M27.414,24.586l-5.077,-5.077c1.049,-1.581 1.663,-3.474 1.663,-5.509c0,-5.514 -4.486,-10 -10,-10c-5.514,0 -10,4.486 -10,10c0,5.514 4.486,10 10,10c2.035,0 3.928,-0.614 5.509,-1.663l5.077,5.077c0.78,0.781 2.048,0.781 2.828,0c0.781,-0.781 0.781,-2.047 0,-2.828zM7,14c0,-3.86 3.14,-7 7,-7c3.86,0 7,3.14 7,7c0,3.86 -3.14,7 -7,7c-3.86,0 -7,-3.14 -7,-7z" id="XMLID_223_"></path></g></g></g></g></g></g></svg>