<svg version="1.1" xmlns="http://www.w3.org/2000/svg" xmlns:xlink="http://www.w3.org/1999/xlink" width="32px" height="32px" viewBox="0,0,256,256"><g fill="none" fill-rule="nonzero" stroke="none" stroke-width="1" stroke-linecap="butt" stroke-linejoin="miter" stroke-miterlimit="10" stroke-dasharray="" stroke-dashoffset="0" font-family="none" font-weight="none" font-size="none" text-anchor="none" style="mix-blend-mode: normal"><g transform="scale(8,8)"><g id="Layer_2" fill="#a8a8a8"><path d="M4,29c-0.2658,0.00154 -0.52128,-0.10281 -0.71,-0.29c-0.18931,-0.18777 -0.2958,-0.44336 -0.2958,-0.71c0,-0.26664 0.10649,-0.52223 0.2958,-0.71l24,-24c0.39212,-0.39212 1.02788,-0.39212 1.42,0c0.39212,0.39212 0.39212,1.02788 0,1.42l-24,24c-0.18872,0.18719 -0.4442,0.29154 -0.71,0.29z"></path><path d="M28,29c-0.2658,0.00154 -0.52128,-0.10281 -0.71,-0.29l-24,-24c-0.39212,-0.39212 -0.39212,-1.02788 0,-1.42c0.39212,-0.39212 1.02788,-0.39212 1.42,0l24,24c0.18931,0.18777 0.2958,0.44336 0.2958,0.71c0,0.26664 -0.10649,0.52223 -0.2958,0.71c-0.18872,0.18719 -0.4442,0.29154 -0.71,0.29z"></path></g><g id="frame" fill="none"><rect x="0" y="0" width="32" height="32"></rect></g></g></g></svg>